<svg width="192" height="192" viewBox="0 0 192 192" fill="none" xmlns="http://www.w3.org/2000/svg">
<path d="M188.025 68.5518L182.837 68.7942C185.261 77.0844 187.087 87.2815 187.087 96C187.087 108.298 184.679 120.224 179.928 131.456C175.339 142.299 168.77 152.044 160.407 160.415C152.044 168.778 142.299 175.347 131.448 179.936C120.216 184.687 108.29 187.095 95.9919 187.095C83.694 187.095 71.7677 184.687 60.5363 179.936C49.6928 175.347 39.9482 168.778 31.5771 160.415C23.2142 152.052 16.6451 142.307 12.0556 131.456C7.30444 120.224 4.89656 108.298 4.89656 96C4.89656 83.702 7.30444 71.7758 12.0556 60.5444C16.6451 49.7009 23.2142 39.9562 31.5771 31.5852C39.9562 23.2223 49.6928 16.6531 60.5444 12.0636C71.7758 7.31252 83.702 4.90464 96 4.90464C114.73 4.90464 132.724 10.5446 148.036 21.2184C162.007 30.9631 172.858 44.2145 179.581 59.7202H174.636H174.555H165.61H146.032H142.679V64.6249H146.032H167.994H174.547H174.628H186.821L185.528 61.2797C178.603 43.4307 166.604 28.1835 150.84 17.1864C134.704 5.94697 115.74 0 96 0C83.0395 0 70.4668 2.53716 58.6294 7.54684C47.196 12.3788 36.9343 19.3034 28.1188 28.1188C19.3034 36.9343 12.3788 47.196 7.54684 58.6294C2.53716 70.4668 0 83.0395 0 96C0 108.961 2.53716 121.533 7.54684 133.371C12.3788 144.804 19.3034 155.066 28.1188 163.881C36.9343 172.697 47.2041 179.621 58.6294 184.453C70.4668 189.463 83.0395 192 96 192C108.961 192 121.533 189.463 133.371 184.453C144.804 179.621 155.066 172.697 163.881 163.881C172.697 155.066 179.621 144.796 184.453 133.371C189.463 121.533 192 108.961 192 96C192 86.8129 190.586 77.2864 188.025 68.5518Z" fill="url(#paint0_linear)"/>
<path d="M142.679 57.3447V66.3863C142.679 66.4671 142.671 66.5399 142.655 66.6207C142.63 66.7661 142.574 66.8954 142.501 67.0166C142.283 67.3883 141.887 67.6388 141.426 67.6388H124.369C123.683 67.6388 123.125 67.0812 123.125 66.3944V57.3447C123.125 56.6579 123.683 56.1003 124.369 56.1003H141.426C142.081 56.1003 142.606 56.6013 142.663 57.2477C142.679 57.272 142.679 57.3043 142.679 57.3447Z" fill="url(#paint1_linear)"/>
<path d="M169.238 67.5822H146.04V68.6326C146.04 69.3113 145.491 69.8608 144.812 69.8608H121.364C120.685 69.8608 120.135 69.3113 120.135 68.6326V54.7105C120.135 54.0318 120.685 53.4824 121.364 53.4824H144.812C145.491 53.4824 146.04 54.0318 146.04 54.7105V56.3104H163.695C144.836 24.6686 104.953 8.37101 66.4025 23.3031C40.3037 33.4113 17.8571 64.7703 16.7501 92.7356C14.3826 152.561 74.7008 193.656 130.179 168.107C153.943 157.167 170.547 134.777 174.062 108.855C176.09 93.8426 174.111 79.8801 169.238 67.5822ZM54.7833 146.864C43.6408 137.936 36.6434 125.202 35.0839 111.013L41.0309 110.358C42.4207 122.963 48.6343 134.267 58.5244 142.194C68.4144 150.121 80.8013 153.724 93.4063 152.335L94.0608 158.282C79.8721 159.849 65.9258 155.793 54.7833 146.864ZM50.6705 107.45L57.8052 106.666C59.7849 124.644 75.9694 137.613 93.9396 135.633L94.7233 142.768C72.8504 145.184 53.0864 129.339 50.6705 107.45ZM120.612 101.648C119.416 108.831 114.956 115.118 108.573 118.616C89.3177 129.177 67.3156 113.566 70.9274 91.9034C72.1232 84.7201 76.5835 78.4338 82.9668 74.9351C102.222 64.3663 124.224 79.9852 120.612 101.648Z" fill="url(#paint2_linear)"/>
<defs>
<linearGradient id="paint0_linear" x1="-329.651" y1="511.008" x2="299.784" y2="-104.363" gradientUnits="userSpaceOnUse">
<stop stop-color="#B9054C"/>
<stop offset="0.3054" stop-color="#015DB8"/>
<stop offset="0.6522" stop-color="#B9054C"/>
<stop offset="1" stop-color="#01050D"/>
</linearGradient>
<linearGradient id="paint1_linear" x1="89.5523" y1="86.8098" x2="123.03" y2="31.3436" gradientUnits="userSpaceOnUse">
<stop stop-color="#B9054C"/>
<stop offset="0.3054" stop-color="#015DB8"/>
<stop offset="0.6522" stop-color="#B9054C"/>
<stop offset="1" stop-color="#01050D"/>
</linearGradient>
<linearGradient id="paint2_linear" x1="-254.882" y1="438.552" x2="263.495" y2="-68.3899" gradientUnits="userSpaceOnUse">
<stop stop-color="#B9054C"/>
<stop offset="0.3054" stop-color="#015DB8"/>
<stop offset="0.6522" stop-color="#B9054C"/>
<stop offset="1" stop-color="#01050D"/>
</linearGradient>
</defs>
</svg>
