<svg width="348" height="636" viewBox="0 0 348 636" fill="none" xmlns="http://www.w3.org/2000/svg">
<path d="M167.548 427.831H174.941C245.987 427.831 303.61 370.236 303.61 299.163V261.321H253.19V236.629H303.61V210.737H253.19V186.046H303.61V160.154H253.19V135.462H303.61V128.669C303.61 57.6226 246.015 0 174.941 0H167.548C96.5016 0 38.8789 57.5953 38.8789 128.669V135.462H89.0532V160.154H38.8789V186.046H89.0532V210.737H38.8789V236.629H89.0532V261.321H38.8789V299.163C38.8789 370.236 96.4743 427.831 167.548 427.831Z" fill="url(#paint0_linear)"/>
<path d="M299.79 495.385C278.318 495.385 260.12 509.463 253.872 528.889H186.291V474.295C273.68 466.274 342.462 389.198 342.462 295.588H314.305C314.305 378.967 250.134 446.82 171.231 446.82C92.3544 446.82 28.1565 378.967 28.1565 295.588H0C0 389.198 68.7815 466.274 156.17 474.295V528.889H113.827C63.1612 528.889 21.9631 570.114 21.9631 620.752V635.813H170.249H177.342H185.827V622.99H186.291V558.983H254.063C260.502 578.054 278.536 591.832 299.763 591.832C326.364 591.832 348 570.196 348 543.595C348.027 517.048 326.392 495.385 299.79 495.385ZM156.17 605.719H53.9394C60.6784 578.927 84.9878 559.01 113.854 559.01H156.198V605.719H156.17ZM299.79 561.766C289.804 561.766 281.674 553.635 281.674 543.649C281.674 533.664 289.804 525.533 299.79 525.533C309.776 525.533 317.906 533.664 317.906 543.649C317.906 553.635 309.776 561.766 299.79 561.766Z" fill="url(#paint1_linear)"/>
<defs>
<linearGradient id="paint0_linear" x1="-415.646" y1="1138.67" x2="826.985" y2="386.945" gradientUnits="userSpaceOnUse">
<stop stop-color="#B9054C"/>
<stop offset="0.3054" stop-color="#015DB8"/>
<stop offset="0.6522" stop-color="#B9054C"/>
<stop offset="1" stop-color="#01050D"/>
</linearGradient>
<linearGradient id="paint1_linear" x1="-597.492" y1="1201.09" x2="518.152" y2="85.4515" gradientUnits="userSpaceOnUse">
<stop stop-color="#B9054C"/>
<stop offset="0.3054" stop-color="#015DB8"/>
<stop offset="0.6522" stop-color="#B9054C"/>
<stop offset="1" stop-color="#01050D"/>
</linearGradient>
</defs>
</svg>
