<svg width="158" height="250" viewBox="0 0 158 250" fill="none" xmlns="http://www.w3.org/2000/svg">
<path d="M102.63 109.34C106.988 109.34 110.52 105.807 110.52 101.45C110.52 97.0924 106.988 93.5599 102.63 93.5599C98.2725 93.5599 94.74 97.0924 94.74 101.45C94.74 105.807 98.2725 109.34 102.63 109.34Z" fill="white"/>
<path d="M102.63 135.34C106.988 135.34 110.52 131.807 110.52 127.45C110.52 123.092 106.988 119.56 102.63 119.56C98.2725 119.56 94.74 123.092 94.74 127.45C94.74 131.807 98.2725 135.34 102.63 135.34Z" fill="white"/>
<path d="M102.63 160.2C106.988 160.2 110.52 156.667 110.52 152.31C110.52 147.952 106.988 144.42 102.63 144.42C98.2725 144.42 94.74 147.952 94.74 152.31C94.74 156.667 98.2725 160.2 102.63 160.2Z" fill="white"/>
<path d="M157.52 7.98997L153.11 0.819968C152.65 0.0299683 151.64 -0.230032 150.86 0.239968C128.69 13.65 115 37.87 115 63.85V178.24C115 182.9 114.28 187.42 112.94 191.67C110.29 200.08 103.89 206.88 95.46 209.49C93.26 210.17 90.84 210.61 88.2 210.69C87.94 210.7 87.67 210.7 87.42 210.7C74.77 210.7 64.6 200.22 64.6 187.56V127.42C64.6 126.52 63.87 125.8 62.98 125.8H1.62C0.72 125.8 0 126.53 0 127.42V178.19C0 196.88 7.18 214.93 20.3 228.23C33.65 241.76 51.5 249.22 70.49 249.22C89.48 249.22 107.33 241.76 120.68 228.23C133.8 214.93 140.98 196.87 140.98 178.19L130.48 65.93C129.73 40.07 139.06 20.01 157.52 7.98997ZM53.55 211.53L44 211.01C30.63 211.01 19.8 199.4 19.8 185.09V142.53C19.8 141.73 20.45 141.09 21.24 141.09H42.55C43.35 141.09 43.99 141.74 43.99 142.53V184.24C43.99 191.41 46.36 198.38 50.74 204.06L54.77 209.15C55.57 210.15 54.82 211.6 53.55 211.53Z" fill="white"/>
</svg>
