<svg width="27" height="48" viewBox="0 0 27 48" fill="none" xmlns="http://www.w3.org/2000/svg">
<path d="M12.6488 32.2987H13.207C18.5705 32.2987 22.9207 27.9506 22.9207 22.585V19.7281H19.1143V17.8641H22.9207V15.9094H19.1143V14.0453H22.9207V12.0906H19.1143V10.2266H22.9207V9.7137C22.9207 4.35015 18.5726 0 13.207 0H12.6488C7.28528 0 2.93512 4.3481 2.93512 9.7137V10.2266H6.72297V12.0906H2.93512V14.0453H6.72297V15.9094H2.93512V17.8641H6.72297V19.7281H2.93512V22.585C2.93512 27.9506 7.28322 32.2987 12.6488 32.2987Z" fill="white"/>
<path d="M22.6323 37.3985C21.0113 37.3985 19.6375 38.4614 19.1658 39.9279H14.0639V35.8064C20.6612 35.2008 25.8538 29.3821 25.8538 22.3151H23.7281C23.7281 28.6097 18.8836 33.7322 12.9269 33.7322C6.9722 33.7322 2.12565 28.6097 2.12565 22.3151H0C0 29.3821 5.19258 35.2008 11.7899 35.8064V39.9279H8.59321C4.76829 39.9279 1.65808 43.0401 1.65808 46.863V48H12.8527H13.3883H14.0288V47.0319H14.0639V42.1998H19.1802C19.6663 43.6395 21.0278 44.6797 22.6303 44.6797C24.6385 44.6797 26.2719 43.0463 26.2719 41.0381C26.2739 39.034 24.6406 37.3985 22.6323 37.3985ZM11.7899 45.7281H4.07209C4.58085 43.7054 6.41606 42.2018 8.59526 42.2018H11.792V45.7281H11.7899ZM22.6323 42.4099C21.8785 42.4099 21.2647 41.7961 21.2647 41.0422C21.2647 40.2883 21.8785 39.6746 22.6323 39.6746C23.3862 39.6746 24 40.2883 24 41.0422C24 41.7961 23.3862 42.4099 22.6323 42.4099Z" fill="white"/>
</svg>
